# xmcd
#
# Track frame offsets: 
#        150
#        10273
#        20818
#        33429
#        50189
#        67853
#        81511
#        97180
#        115458
#        129156
#
# Disc length: 2120 seconds
#
# Revision: 0
# Processed by: cddbd v1.5.2PL0 Copyright (c) Steve Scherf et al.
# Submitted via: ExactAudioCopy v1.0b1
#
DISCID=8908460a
DTITLE=Jim Upichard - Green and Blue
DYEAR=2003
DGENRE=Blues
TTITLE0=Shake your moneymaker
TTITLE1=Stop messin' around
TTITLE2=Rolling man
TTITLE3=Walking blues
TTITLE4=Black magic woman
TTITLE5=You don't love me
TTITLE6=All your love
TTITLE7=World keeps on turning
TTITLE8=Looking for somebody
TTITLE9=Sugar mamma
EXTD=
EXTT0=
EXTT1=
EXTT2=
EXTT3=
EXTT4=
EXTT5=
EXTT6=
EXTT7=
EXTT8=
EXTT9=
PLAYORDER=
